<svg xmlns="http://www.w3.org/2000/svg" width="48" height="48" viewBox="0 0 48 48">
  <path stroke-width="3" d="M25.053588,45.9910934 C25.5375426,45.9970311 26.0422928,46 26.5529868,46 C30.6561724,46 34.75951,45.7565406 35.8996216,42.8617288 C36.3568519,41.7008672 36.3984204,40.6438318 36.3093473,39.8451456 C36.9179996,39.1444482 37.5949371,38.1112639 37.7315225,36.8850359 C37.8354398,35.9646618 37.6602655,35.0353188 37.4375865,34.2900659 C38.1174958,33.5210986 38.8063285,32.3839513 38.8716189,30.8934454 C38.9309997,29.5544224 38.6875364,28.5271058 38.3698481,27.7699957 C38.8062981,27.0514898 39.2456819,26.0984401 39.3526243,25.0503736 C39.6168718,22.4999439 38.0254584,20.0683139 35.7274495,19.5161199 C35.1039529,19.3646979 34.0855368,19.311257 31.9656893,19.311257 C31.3481289,19.311257 30.7068541,19.3171955 30.0892177,19.3201643 C30.0001446,19.3201643 29.9110714,19.3231332 29.8220059,19.3231332 C30.3712813,18.2869238 31.0334125,17.0726289 31.6479326,15.9829863 L31.6805923,15.9265743 L31.7102831,15.8671935 C33.405629,12.3488851 32.6128714,8.24896787 31.1550715,5.9269406 C30.1574739,4.33549684 29.0589384,4 28.3166497,4 C27.6070518,4 26.9538363,4.29690026 26.4787898,4.83433366 C25.5762015,5.85268133 25.0536503,7.52134865 24.4628445,9.59962006 C24.3025144,10.1637397 24.1362481,10.7486245 24.0263946,11.0217953 C23.462275,12.4232204 21.1998299,14.8369887 19.4481625,16.2116592 C18.7949698,16.722338 18.0527419,17.200364 17.2629486,17.7050534 C14.3592364,19.5636633 10.7459188,21.879534 9.0891086,27.7882003 C7.37597693,33.8985143 7.68175486,38.369956 10.0214159,41.4543379 C13.0498563,45.4476927 18.6847438,45.9850653 23.7977642,45.9850653 C24.1956176,45.9820964 24.6172004,45.9880349 25.0536351,45.9910038 L25.053588,45.9910934 Z" transform="rotate(-180 23.69 25)"/>
</svg>
