<svg xmlns="http://www.w3.org/2000/svg" width="48" height="48" viewBox="0 0 48 48">
  <path d="M37.3590674,10.5488706 C34.3304078,6.55522665 28.6951123,6.01781515 23.5817218,6.01781515 C23.1868117,6.01781515 22.7651907,6.01484609 22.3287244,6.0089072 C21.8447348,6.00296907 21.3399481,6 20.8292171,6 C16.7257345,6 12.6220998,6.24347705 11.4819057,9.13849835 C11.0246422,10.299444 10.9830708,11.356556 11.0721503,12.1553 C10.4634539,12.8560481 9.78646743,13.8893072 9.64987218,15.115624 C9.54594728,16.0360647 9.72113431,16.9654749 9.94382943,17.7107818 C9.26387086,18.4798048 8.57498837,19.6170344 8.50969326,21.1076482 C8.45030815,22.4467682 8.693789,23.4741591 9.01150029,24.231324 C8.57501878,24.9498819 8.13560316,25.9030006 8.02865296,26.9511431 C7.76438636,29.5017573 9.35591493,31.9335633 11.6540902,32.4857974 C12.277632,32.6372304 13.2961218,32.6906751 15.4161227,32.6906751 C16.0337279,32.6906751 16.6750491,32.6847362 17.2927302,32.6817671 C17.3818098,32.6817671 17.4708894,32.678798 17.5599613,32.678798 C17.0106462,33.7150825 16.3484671,34.9294652 15.7339024,36.0191868 L15.7012404,36.0756028 L15.6715482,36.1349879 C13.9731151,39.653551 14.7688946,43.7568056 16.2268,46.0759604 C17.2244698,47.6675194 18.3230849,48 19.0654273,48 C19.7750765,48 20.4283393,47.7030782 20.9063847,47.1656059 C21.8090384,46.1471845 22.3316274,44.4783964 22.922476,42.3999746 C23.0828177,41.8358141 23.249096,41.2508869 23.3589575,40.9776964 C23.9231179,39.5761698 26.1826862,37.1622268 27.937521,35.7874567 C28.590761,35.276741 29.3330426,34.7986804 30.1199286,34.2939545 C33.023851,32.43521 36.6374302,30.1191717 38.2943603,24.2070371 C40.0046515,18.1052502 39.6988514,13.6336369 37.3590211,10.5482716 L37.3590674,10.5488706 Z M18.4333652,37.5099009 C22.0825945,31.0428718 21.9162782,30.7637523 21.5896506,30.2025488 C21.2333399,29.5908802 20.6840324,29.5908802 18.854933,29.5908802 C18.3739155,29.5908802 17.8305066,29.5968183 17.263374,29.5997874 C16.6546776,29.6057263 16.0192702,29.6086954 15.4105586,29.6086954 C13.3113092,29.6086954 12.6016523,29.5433721 12.3730054,29.4899251 C11.58916,29.3028649 10.9923063,28.2636084 11.0932515,27.2718675 C11.1852956,26.3662493 11.9543261,25.3418229 12.2393747,25.0271293 L12.9698134,24.2729365 L12.1829274,23.5810971 C12.1562043,23.554374 11.5148421,22.8981665 11.5890763,21.2472718 C11.6454924,19.9883454 12.9074448,19.1717384 12.9163383,19.1687739 L13.7239758,18.6669669 L13.2904664,17.8207148 C13.097462,17.4465867 12.6223811,16.2915624 12.7144327,15.4542039 C12.7975757,14.7148564 13.6645945,13.8656854 13.9615011,13.628145 L14.5583243,13.1352467 L14.264367,12.4196532 C14.2495202,12.3810531 13.8813302,11.4576334 14.3504745,10.2669667 C14.5612888,9.72656031 15.8588753,9.08519351 20.8234325,9.08519351 C21.3252396,9.08519351 21.8211024,9.0911324 22.2961833,9.09410147 C22.744538,9.09707054 23.1750449,9.10300943 23.5789017,9.10300943 C27.9348233,9.10300943 32.6852521,9.49494736 34.8979888,12.4137531 C36.590493,14.6466333 36.7330173,18.3374416 35.319625,23.3854611 C33.980505,28.1630265 31.1715988,29.9623289 28.4547442,31.7050776 C27.6411777,32.2276665 26.7978901,32.765078 26.0318317,33.3678607 C24.3749776,34.6654016 21.4087246,37.569324 20.4941369,39.8319252 C20.321922,40.259498 20.149707,40.8652451 19.950766,41.5659324 C19.6864994,42.4953427 19.3153434,43.7958481 18.9263396,44.5916276 C18.1721467,43.484119 17.1032452,40.3070061 18.4334412,37.5099579 L18.4333652,37.5099009 Z"/>
</svg>
