<svg xmlns="http://www.w3.org/2000/svg" width="48" height="48" viewBox="0 0 48 48">
  <path d="M25.053588,41.9910934 C25.5375426,41.9970311 26.0422928,42 26.5529868,42 C30.6561724,42 34.75951,41.7565406 35.8996216,38.8617288 C36.3568519,37.7008672 36.3984204,36.6438318 36.3093473,35.8451456 C36.9179996,35.1444482 37.5949371,34.1112639 37.7315225,32.8850359 C37.8354398,31.9646618 37.6602655,31.0353188 37.4375865,30.2900659 C38.1174958,29.5210986 38.8063285,28.3839513 38.8716189,26.8934454 C38.9309997,25.5544224 38.6875364,24.5271058 38.3698481,23.7699957 C38.8062981,23.0514898 39.2456819,22.0984401 39.3526243,21.0503736 C39.6168718,18.4999439 38.0254584,16.0683139 35.7274495,15.5161199 C35.1039529,15.3646979 34.0855368,15.311257 31.9656893,15.311257 C31.3481289,15.311257 30.7068541,15.3171955 30.0892177,15.3201643 C30.0001446,15.3201643 29.9110714,15.3231332 29.8220059,15.3231332 C30.3712813,14.2869238 31.0334125,13.0726289 31.6479326,11.9829863 L31.6805923,11.9265743 L31.7102831,11.8671935 C33.405629,8.34888515 32.6128714,4.24896787 31.1550715,1.9269406 C30.1574739,0.335496837 29.0589384,0 28.3166497,0 C27.6070518,0 26.9538363,0.296900259 26.4787898,0.834333661 C25.5762015,1.85268133 25.0536503,3.52134865 24.4628445,5.59962006 C24.3025144,6.16373968 24.1362481,6.74862452 24.0263946,7.02179526 C23.462275,8.42322042 21.1998299,10.8369887 19.4481625,12.2116592 C18.7949698,12.722338 18.0527419,13.200364 17.2629486,13.7050534 C14.3592364,15.5636633 10.7459188,17.879534 9.0891086,23.7882003 C7.37597693,29.8985143 7.68175486,34.369956 10.0214159,37.4543379 C13.0498563,41.4476927 18.6847438,41.9850653 23.7977642,41.9850653 C24.1956176,41.9820964 24.6172004,41.9880349 25.0536351,41.9910038 L25.053588,41.9910934 Z M28.9489693,10.4928506 C25.3000041,16.9594115 25.4663084,17.2414751 25.7929124,17.7996737 C26.1462254,18.4083261 26.6955007,18.411298 28.506606,18.411298 C29.0054048,18.4083291 29.5428154,18.4083291 30.1158355,18.4023914 C30.7244878,18.396453 31.3598492,18.3934841 31.9685168,18.3934841 C34.0676143,18.3934841 34.780184,18.4588026 35.0088144,18.5122457 C35.7926031,18.6992924 36.3894135,19.7384737 36.2884756,20.7301428 C36.1964382,21.6356954 35.4274634,22.6600477 35.1424355,22.9747185 L34.4120496,23.7288567 L35.1988786,24.420646 C35.2255998,24.4473672 35.8669156,25.1035273 35.7926867,26.7543024 C35.7362747,28.0101733 34.4744137,28.8267213 34.4655208,28.8326498 L33.6520132,29.3344206 L34.0914274,30.1806114 C34.2695736,30.5250163 34.7594644,31.7007602 34.6674194,32.5439867 C34.5842824,33.2832806 33.7173264,34.1323902 33.4204413,34.3699134 L32.8236613,34.862776 L33.1175973,35.5783177 C33.132443,35.616915 33.5006064,36.5402678 33.031496,37.7308484 C32.820697,38.2712156 31.5232044,38.912536 26.5560423,38.912536 C26.0542716,38.912536 25.5614089,38.9065983 25.0833981,38.9036295 C24.6350758,38.9006606 24.2046001,38.8947222 23.8007726,38.8947222 C19.4451663,38.8947222 14.6950814,38.5028126 12.4825048,35.5842181 C10.7901232,33.3514996 10.6476092,29.6609584 12.0608991,24.6133044 C13.3999222,19.8360848 16.2086251,18.0369127 18.925283,16.2942901 C19.7387906,15.771739 20.5820172,15.2343664 21.3480201,14.6316274 C23.0047543,13.3341804 25.9707926,10.4304682 26.8853141,8.16803077 C27.0575165,7.74048892 27.229719,7.13478564 27.4316176,6.43110877 C27.695865,5.50176581 28.0669941,4.20431882 28.4559698,3.40563265 C29.210108,4.51898962 30.2789322,7.69587256 28.9488325,10.4927183 L28.9489693,10.4928506 Z"/>
</svg>
